<svg xmlns="http://www.w3.org/2000/svg" xmlns:xlink="http://www.w3.org/1999/xlink" width="15" height="11" viewBox="0 0 15 11"><defs><path id="7niba" d="M187 341.5a5.5 5.5 0 1 1 11 0 5.5 5.5 0 0 1-11 0z"/><path id="7nibb" d="M190.4 338.1a.42.42 0 0 0-.55 0 .33.33 0 0 0 0 .5l2.81 2.55h-9.27c-.22 0-.39.15-.39.35 0 .2.17.35.39.35h9.27l-2.8 2.54a.34.34 0 0 0 0 .5c.15.15.4.15.55 0l3.47-3.14a.32.32 0 0 0 0-.5z"/></defs><g><g transform="translate(-183 -336)"><g><use fill="#fff" fill-opacity="0" stroke="#979797" stroke-miterlimit="50" xlink:href="#7niba"/></g><g><g><use fill="#979797" xlink:href="#7nibb"/></g></g></g></g></svg>