<svg xmlns="http://www.w3.org/2000/svg" xmlns:xlink="http://www.w3.org/1999/xlink" width="17" height="11" viewBox="0 0 17 11"><defs><path id="iva1a" d="M187 237.5a5.5 5.5 0 1 1 11 0 5.5 5.5 0 0 1-11 0z"/><path id="iva1b" d="M200.4 234.1a.42.42 0 0 0-.55 0 .33.33 0 0 0 0 .5l2.81 2.55h-9.27c-.22 0-.39.15-.39.35 0 .2.17.35.39.35h9.27l-2.8 2.54a.34.34 0 0 0 0 .5c.15.15.4.15.55 0l3.47-3.14a.32.32 0 0 0 0-.5z"/></defs><g><g transform="translate(-187 -232)"><g><use fill="#fff" fill-opacity="0" stroke="#979797" stroke-miterlimit="50" xlink:href="#iva1a"/></g><g><g><use fill="#979797" xlink:href="#iva1b"/></g></g></g></g></svg>