<svg xmlns="http://www.w3.org/2000/svg" xmlns:xlink="http://www.w3.org/1999/xlink" width="15.97" height="15.61" viewBox="0 0 15.97 15.61"><defs><path id="ahnla" d="M1250.19 27.52v-2.69a.78.78 0 0 0-.78-.78h-9.63a.78.78 0 0 0-.78.78v11.03c0 .29.17.56.42.7l5.93 3.06a.4.4 0 0 0 .57-.35v-3h3.49c.43 0 .78-.34.78-.77v-4.27h-1.56v3.1c0 .22-.17.39-.4.39h-2.3V28.1a.8.8 0 0 0-.41-.7l-3.5-1.79h6.22c.22 0 .39.17.39.4v1.53h1.56z"/><path id="ahnlb" d="M1252.19 26.24l2.54 2.54c.32.32.32.8 0 1.13l-2.54 2.54a.8.8 0 0 1-1.15.01c-.3-.31-.27-.83.03-1.14l1.14-1.14h-4.43a.77.77 0 0 1-.59-.26c-.36-.39-.27-1.08.2-1.34.12-.06.26-.1.39-.1h4.43l-1.14-1.13c-.3-.3-.34-.83-.03-1.13a.8.8 0 0 1 1.15.02z"/></defs><g><g transform="translate(-1239 -24.05)"><use fill="#ec584f" xlink:href="#ahnla"/></g><g transform="translate(-1239 -24.05)"><use fill="#ec584f" xlink:href="#ahnlb"/></g></g></svg>