<svg xmlns="http://www.w3.org/2000/svg" xmlns:xlink="http://www.w3.org/1999/xlink" width="14" height="10" viewBox="0 0 14 10"><defs><path id="at6sa" d="M1099 244a1 1 0 0 1 1-1h6a1 1 0 0 1 0 2h-6a1 1 0 0 1-1-1z"/><path id="at6sb" d="M1105 236a1 1 0 0 1 1-1h6a1 1 0 0 1 0 2h-6a1 1 0 0 1-1-1z"/><path id="at6sc" d="M1106 235a1 1 0 0 1 1 1v8a1 1 0 0 1-2 0v-8a1 1 0 0 1 1-1z"/><clipPath id="at6sd"><use fill="#fff" xlink:href="#at6sa"/></clipPath><clipPath id="at6se"><use fill="#fff" xlink:href="#at6sb"/></clipPath><clipPath id="at6sf"><use fill="#fff" xlink:href="#at6sc"/></clipPath></defs><g><g transform="translate(-1099 -235)"><use fill="#d7d7d7" xlink:href="#at6sa"/><use fill="#fff" fill-opacity="0" stroke="#969696" stroke-miterlimit="50" stroke-width="2" clip-path="url(&quot;#at6sd&quot;)" xlink:href="#at6sa"/></g><g transform="translate(-1099 -235)"><use fill="#d7d7d7" xlink:href="#at6sb"/><use fill="#fff" fill-opacity="0" stroke="#969696" stroke-miterlimit="50" stroke-width="2" clip-path="url(&quot;#at6se&quot;)" xlink:href="#at6sb"/></g><g transform="translate(-1099 -235)"><use fill="#d7d7d7" xlink:href="#at6sc"/><use fill="#fff" fill-opacity="0" stroke="#969696" stroke-miterlimit="50" stroke-width="2" clip-path="url(&quot;#at6sf&quot;)" xlink:href="#at6sc"/></g></g></svg>