<svg xmlns="http://www.w3.org/2000/svg" xmlns:xlink="http://www.w3.org/1999/xlink" width="12" height="12" viewBox="0 0 12 12"><defs><path id="tavba" d="M1192.47 253.54l.98-.77c.09-.08.12-.2.06-.3l-.94-1.62c-.06-.1-.18-.14-.28-.1l-1.16.47c-.24-.19-.5-.34-.79-.46l-.17-1.23a.24.24 0 0 0-.24-.2h-1.86a.24.24 0 0 0-.24.2l-.17 1.24c-.28.12-.55.27-.79.46l-1.16-.47a.24.24 0 0 0-.28.1l-.94 1.61c-.06.1-.03.23.06.3l.98.78a3.37 3.37 0 0 0 0 .91l-.98.77a.24.24 0 0 0-.06.3l.94 1.62c.06.1.18.14.28.1l1.16-.47c.24.19.5.34.79.46l.17 1.23c.02.11.12.2.24.2h1.86c.12 0 .22-.09.24-.2l.17-1.24c.28-.12.55-.27.79-.46l1.16.47c.1.04.22 0 .28-.1l.94-1.61a.24.24 0 0 0-.06-.3l-.98-.78a3.37 3.37 0 0 0 0-.91zm2.53-4.2v9.33c0 .73-.6 1.33-1.33 1.33h-9.34c-.74 0-1.33-.6-1.33-1.33v-9.34c0-.73.6-1.33 1.33-1.33h9.34c.74 0 1.33.6 1.33 1.33zm-4.67 4.66c0 .73-.6 1.33-1.33 1.33-.73 0-1.33-.6-1.33-1.33 0-.73.6-1.33 1.33-1.33.73 0 1.33.6 1.33 1.33z"/></defs><g><g transform="translate(-1183 -248)"><use fill="#979797" xlink:href="#tavba"/></g></g></svg>