<svg xmlns="http://www.w3.org/2000/svg" xmlns:xlink="http://www.w3.org/1999/xlink" width="19" height="15" viewBox="0 0 19 15"><defs><path id="zirga" d="M1183 279v-1h10v1z"/><path id="zirgb" d="M1183 283v-1h10v1z"/><path id="zirgc" d="M1183 287v-1h8v1z"/><path id="zirgd" d="M1196.5 289a1.5 1.5 0 1 1 0-3 1.5 1.5 0 0 1 0 3zm3.44-1.06a3.41 3.41 0 0 0 0-.88l.97-.74a.22.22 0 0 0 .06-.3l-.93-1.55a.24.24 0 0 0-.28-.1l-1.15.45a3.4 3.4 0 0 0-.78-.44l-.18-1.2a.22.22 0 0 0-.22-.18h-1.85a.22.22 0 0 0-.23.19l-.18 1.2c-.28.1-.54.26-.78.43l-1.15-.45a.23.23 0 0 0-.28.1l-.93 1.56c-.06.1-.03.22.06.29l.97.74a3.47 3.47 0 0 0 0 .88l-.97.74a.22.22 0 0 0-.06.3l.93 1.55c.05.1.18.13.28.1l1.15-.45c.24.18.5.33.78.44l.18 1.2c.01.1.11.18.23.18h1.85c.11 0 .2-.08.22-.19l.18-1.2c.28-.1.54-.26.78-.43l1.15.45c.1.04.23 0 .28-.1l.93-1.56a.22.22 0 0 0-.06-.29z"/></defs><g><g transform="translate(-1183 -278)"><g><use fill="#979797" xlink:href="#zirga"/></g><g><use fill="#979797" xlink:href="#zirgb"/></g><g><use fill="#979797" xlink:href="#zirgc"/></g></g><g transform="translate(-1183 -278)"><g/><g><use fill="#979797" xlink:href="#zirgd"/></g></g></g></svg>