<svg xmlns="http://www.w3.org/2000/svg" xmlns:xlink="http://www.w3.org/1999/xlink" width="20" height="20" viewBox="0 0 20 20"><defs><path id="8c12a" d="M531 288a10 10 0 1 1 20 0 10 10 0 0 1-20 0z"/><path id="8c12b" d="M541.1 287.84v-4.37c0-.26-.26-.47-.56-.47-.29 0-.54.21-.54.47v4.44l.02.06a.4.4 0 0 0 .15.38l2.92 2.52c.2.17.55.17.75 0 .22-.19.2-.47 0-.65z"/></defs><g><g transform="translate(-531 -278)"><use fill="#e08851" xlink:href="#8c12a"/></g><g transform="translate(-531 -278)"><use fill="#fff" xlink:href="#8c12b"/></g></g></svg>